<svg xmlns="http://www.w3.org/2000/svg" viewBox="0 0 1024 1024" width="1024" height="1024">
  <!-- Background -->
  <rect width="1024" height="1024" rx="200" fill="#0F0A06"/>

  <!-- INNER LEFT toe: large teardrop, close to center -->
  <ellipse cx="398" cy="222" rx="92" ry="132" fill="#FFCB05" transform="rotate(-3, 398, 222)"/>

  <!-- INNER RIGHT toe: large teardrop, close to center, slightly higher -->
  <ellipse cx="626" cy="206" rx="94" ry="134" fill="#FFCB05" transform="rotate(3, 626, 206)"/>

  <!-- OUTER LEFT toe: smaller, angled outward -->
  <ellipse cx="214" cy="468" rx="70" ry="108" fill="#FFCB05" transform="rotate(-28, 214, 468)"/>

  <!-- OUTER RIGHT toe: smaller, angled outward -->
  <ellipse cx="810" cy="468" rx="70" ry="108" fill="#FFCB05" transform="rotate(28, 810, 468)"/>

  <!-- MAIN PAD: wide, with two bumps at top, rounded circular bottom -->
  <path d="
    M 512 894
    C 372 894 184 810 184 668
    C 184 544 250 480 338 460
    C 368 452 395 446 424 455
    C 452 464 470 482 512 497
    C 554 482 572 464 600 455
    C 629 446 656 452 686 460
    C 774 480 840 544 840 668
    C 840 810 652 894 512 894 Z
  " fill="#FFCB05"/>
</svg>
